<?xml version="1.0" encoding="UTF-8" standalone="no"?>
<!-- Created with Inkscape (http://www.inkscape.org/) -->

<svg
   xmlns:dc="http://purl.org/dc/elements/1.1/"
   xmlns:cc="http://creativecommons.org/ns#"
   xmlns:rdf="http://www.w3.org/1999/02/22-rdf-syntax-ns#"
   xmlns:svg="http://www.w3.org/2000/svg"
   xmlns="http://www.w3.org/2000/svg"
   xmlns:sodipodi="http://sodipodi.sourceforge.net/DTD/sodipodi-0.dtd"
   xmlns:inkscape="http://www.inkscape.org/namespaces/inkscape"
   width="16"
   height="16"
   id="svg2"
   version="1.1"
   inkscape:version="0.48.3.1 r9886"
   sodipodi:docname="0120.svg"
   inkscape:export-filename="/home/maxs/inkscape/SQC/16x16/0120-bis.png"
   inkscape:export-xdpi="90"
   inkscape:export-ydpi="90">
  <defs
     id="defs4">
    <filter
       inkscape:collect="always"
       id="filter3826">
      <feGaussianBlur
         inkscape:collect="always"
         stdDeviation="0.135"
         id="feGaussianBlur3828" />
    </filter>
  </defs>
  <sodipodi:namedview
     id="base"
     pagecolor="#ffffff"
     bordercolor="#666666"
     borderopacity="1.0"
     inkscape:pageopacity="0.0"
     inkscape:pageshadow="2"
     inkscape:zoom="46.625"
     inkscape:cx="8"
     inkscape:cy="8"
     inkscape:document-units="px"
     inkscape:current-layer="layer1"
     showgrid="true"
     inkscape:window-width="1280"
     inkscape:window-height="979"
     inkscape:window-x="0"
     inkscape:window-y="24"
     inkscape:window-maximized="1">
    <inkscape:grid
       type="xygrid"
       id="grid2985"
       empspacing="4"
       visible="true"
       enabled="true"
       snapvisiblegridlinesonly="true" />
  </sodipodi:namedview>
  <metadata
     id="metadata7">
    <rdf:RDF>
      <cc:Work
         rdf:about="">
        <dc:format>image/svg+xml</dc:format>
        <dc:type
           rdf:resource="http://purl.org/dc/dcmitype/StillImage" />
        <dc:title></dc:title>
      </cc:Work>
    </rdf:RDF>
  </metadata>
  <g
     inkscape:label="Calque 1"
     inkscape:groupmode="layer"
     id="layer1"
     transform="translate(0,-1036.3622)">
    <g
       id="g3786">
      <path
         sodipodi:nodetypes="cccccccccccccccccccccccc"
         inkscape:connector-curvature="0"
         id="path3755"
         transform="translate(0,1036.3622)"
         d="m 0,6 0,4 1,1 14,0 1,-1 L 16,6 15,5 1,5 z m 1,0 4,0 0,4 -4,0 z m 5,0 4,0 0,4 -4,0 z m 5,0 4,0 0,4 -4,0 z"
         style="fill:#2e3436;stroke:none" />
      <path
         sodipodi:nodetypes="cccccccccccccc"
         transform="translate(0,1036.3622)"
         inkscape:connector-curvature="0"
         id="path3782"
         d="m 13,11 1,0 0,3 -1,1 L 3,15 2,14 2,13 1,13 2.5,10.5 4,13 l -1,0 0,1 10,0 z"
         style="fill:#ef2929;stroke:none" />
      <path
         sodipodi:nodetypes="cccccccc"
         transform="translate(0,1036.3622)"
         inkscape:connector-curvature="0"
         id="path3784"
         d="M 1,2 1,3 13,3 13,4 15.5,2.5 13,1 13,2 z"
         style="fill:#2e3436;stroke:none"
         inkscape:export-filename="/home/maxs/inkscape/SQC/16x16/0120-bis.png"
         inkscape:export-xdpi="90"
         inkscape:export-ydpi="90" />
    </g>
  </g>
</svg>
