<?xml version="1.0" encoding="UTF-8" standalone="no"?>
<!-- Created with Inkscape (http://www.inkscape.org/) -->

<svg
   xmlns:dc="http://purl.org/dc/elements/1.1/"
   xmlns:cc="http://creativecommons.org/ns#"
   xmlns:rdf="http://www.w3.org/1999/02/22-rdf-syntax-ns#"
   xmlns:svg="http://www.w3.org/2000/svg"
   xmlns="http://www.w3.org/2000/svg"
   xmlns:sodipodi="http://sodipodi.sourceforge.net/DTD/sodipodi-0.dtd"
   xmlns:inkscape="http://www.inkscape.org/namespaces/inkscape"
   width="16"
   height="16"
   id="svg2"
   version="1.1"
   inkscape:version="0.48.3.1 r9886"
   sodipodi:docname="camera_scrolling.svg"
   inkscape:export-filename="/home/maxs/inkscape/SQC/16x16/self_scrolling.png"
   inkscape:export-xdpi="90"
   inkscape:export-ydpi="90">
  <defs
     id="defs4">
    <filter
       inkscape:collect="always"
       id="filter3904">
      <feGaussianBlur
         inkscape:collect="always"
         stdDeviation="0.135"
         id="feGaussianBlur3906" />
    </filter>
  </defs>
  <sodipodi:namedview
     id="base"
     pagecolor="#ffffff"
     bordercolor="#666666"
     borderopacity="1.0"
     inkscape:pageopacity="0.0"
     inkscape:pageshadow="2"
     inkscape:zoom="46.625"
     inkscape:cx="4.5147453"
     inkscape:cy="8"
     inkscape:document-units="px"
     inkscape:current-layer="layer1"
     showgrid="true"
     inkscape:window-width="1280"
     inkscape:window-height="979"
     inkscape:window-x="0"
     inkscape:window-y="24"
     inkscape:window-maximized="1">
    <inkscape:grid
       type="xygrid"
       id="grid2985"
       empspacing="4"
       visible="true"
       enabled="true"
       snapvisiblegridlinesonly="true" />
  </sodipodi:namedview>
  <metadata
     id="metadata7">
    <rdf:RDF>
      <cc:Work
         rdf:about="">
        <dc:format>image/svg+xml</dc:format>
        <dc:type
           rdf:resource="http://purl.org/dc/dcmitype/StillImage" />
        <dc:title />
      </cc:Work>
    </rdf:RDF>
  </metadata>
  <g
     inkscape:label="Calque 1"
     inkscape:groupmode="layer"
     id="layer1"
     transform="translate(0,-1036.3622)">
    <g
       id="g3886"
       transform="translate(-0.5,-1.5)">
      <path
         style="fill:#2e3436;stroke:none"
         d="m 0.5,1041.8622 0,5 10,0 0,-5 -1,-1 -6,0 0,-1 -2,0 0,1 z"
         id="path3857"
         inkscape:connector-curvature="0"
         sodipodi:nodetypes="cccccccccc" />
      <path
         style="fill:#4e9a06;stroke:none"
         d="m 10.5,1042.8622 0,1 4,0 0,1 2,-1.5 -2,-1.5 0,1 z"
         id="path3861"
         inkscape:connector-curvature="0"
         sodipodi:nodetypes="cccccccc" />
      <path
         sodipodi:nodetypes="cccccccc"
         inkscape:connector-curvature="0"
         id="path3863"
         d="m 5.5,1046.8622 -1,0 0,4 -1,0 1.5,2 1.5,-2 -1,0 z"
         style="fill:#4e9a06;stroke:none" />
      <path
         style="fill:#eeeeec;fill-opacity:1;fill-rule:nonzero;stroke:none"
         d="m 5.5,1041.8622 c -1.1045695,0 -2,0.8954 -2,2 0,1.1046 0.8954305,2 2,2 1.1045695,0 2,-0.8954 2,-2 0,-1.1046 -0.8954305,-2 -2,-2 z m 0,1 c 0.5522847,0 1,0.4477 1,1 0,0.5523 -0.4477153,1 -1,1 -0.5522847,0 -1,-0.4477 -1,-1 0,-0.5523 0.4477153,-1 1,-1 z"
         id="path3859"
         inkscape:connector-curvature="0" />
    </g>
  </g>
</svg>
