<?xml version="1.0" encoding="UTF-8" standalone="no"?>
<!-- Created with Inkscape (http://www.inkscape.org/) -->

<svg
   xmlns:dc="http://purl.org/dc/elements/1.1/"
   xmlns:cc="http://creativecommons.org/ns#"
   xmlns:rdf="http://www.w3.org/1999/02/22-rdf-syntax-ns#"
   xmlns:svg="http://www.w3.org/2000/svg"
   xmlns="http://www.w3.org/2000/svg"
   xmlns:sodipodi="http://sodipodi.sourceforge.net/DTD/sodipodi-0.dtd"
   xmlns:inkscape="http://www.inkscape.org/namespaces/inkscape"
   width="16"
   height="16"
   id="svg2"
   version="1.1"
   inkscape:version="0.48.3.1 r9886"
   sodipodi:docname="self_scrolling.svg">
  <defs
     id="defs4">
    <filter
       inkscape:collect="always"
       id="filter3815">
      <feGaussianBlur
         inkscape:collect="always"
         stdDeviation="0.14"
         id="feGaussianBlur3817" />
    </filter>
  </defs>
  <sodipodi:namedview
     id="base"
     pagecolor="#ffffff"
     bordercolor="#666666"
     borderopacity="1.0"
     inkscape:pageopacity="0.0"
     inkscape:pageshadow="2"
     inkscape:zoom="46.625"
     inkscape:cx="8.0214477"
     inkscape:cy="8.1043992"
     inkscape:document-units="px"
     inkscape:current-layer="layer1"
     showgrid="true"
     inkscape:window-width="1280"
     inkscape:window-height="979"
     inkscape:window-x="0"
     inkscape:window-y="24"
     inkscape:window-maximized="1">
    <inkscape:grid
       type="xygrid"
       id="grid2985"
       empspacing="4"
       visible="true"
       enabled="true"
       snapvisiblegridlinesonly="true" />
  </sodipodi:namedview>
  <metadata
     id="metadata7">
    <rdf:RDF>
      <cc:Work
         rdf:about="">
        <dc:format>image/svg+xml</dc:format>
        <dc:type
           rdf:resource="http://purl.org/dc/dcmitype/StillImage" />
        <dc:title />
      </cc:Work>
    </rdf:RDF>
  </metadata>
  <g
     inkscape:label="Calque 1"
     inkscape:groupmode="layer"
     id="layer1"
     transform="translate(0,-1036.3622)">
    <g
       id="g3767">
      <path
         transform="translate(0,1036.3622)"
         d="M 9,8 C 9,8.5522847 8.5522847,9 8,9 7.4477153,9 7,8.5522847 7,8 7,7.4477153 7.4477153,7 8,7 8.5522847,7 9,7.4477153 9,8 z"
         sodipodi:ry="1"
         sodipodi:rx="1"
         sodipodi:cy="8"
         sodipodi:cx="8"
         id="path3755"
         style="fill:#2e3436;fill-opacity:1;fill-rule:nonzero;stroke:none"
         sodipodi:type="arc" />
      <path
         style="fill:#4e9a06;stroke:none"
         d="m 9,1042.3622 -2,0 0,-4 -1,0 2,-2 2,2 -1,0 z"
         id="path3759"
         inkscape:connector-curvature="0"
         sodipodi:nodetypes="cccccccc" />
      <path
         sodipodi:nodetypes="cccccccc"
         inkscape:connector-curvature="0"
         id="path3761"
         d="m 9,1046.3622 -2,0 0,4 -1,0 2,2 2,-2 -1,0 z"
         style="fill:#4e9a06;stroke:none" />
      <path
         style="fill:#4e9a06;stroke:none"
         d="m 6,1045.3622 0,-2 -4,0 0,-1 -2,2 2,2 0,-1 z"
         id="path3763"
         inkscape:connector-curvature="0"
         sodipodi:nodetypes="cccccccc" />
      <path
         sodipodi:nodetypes="cccccccc"
         inkscape:connector-curvature="0"
         id="path3765"
         d="m 10,1045.3622 0,-2 4,0 0,-1 2,2 -2,2 0,-1 z"
         style="fill:#4e9a06;stroke:none" />
    </g>
  </g>
</svg>
