<?xml version="1.0" encoding="UTF-8" standalone="no"?>
<!-- Created with Inkscape (http://www.inkscape.org/) -->

<svg
   xmlns:dc="http://purl.org/dc/elements/1.1/"
   xmlns:cc="http://creativecommons.org/ns#"
   xmlns:rdf="http://www.w3.org/1999/02/22-rdf-syntax-ns#"
   xmlns:svg="http://www.w3.org/2000/svg"
   xmlns="http://www.w3.org/2000/svg"
   xmlns:sodipodi="http://sodipodi.sourceforge.net/DTD/sodipodi-0.dtd"
   xmlns:inkscape="http://www.inkscape.org/namespaces/inkscape"
   width="16"
   height="16"
   id="svg2985"
   version="1.1"
   inkscape:version="0.48.4 r9939"
   sodipodi:docname="grid.svg"
   inkscape:export-filename="/home/maxs/inkscape/SQC/16x16/vertical.png"
   inkscape:export-xdpi="90"
   inkscape:export-ydpi="90">
  <defs
     id="defs2987">
    <linearGradient
       id="linearGradient3884">
      <stop
         style="stop-color:#3465a4;stop-opacity:1;"
         offset="0"
         id="stop3886" />
      <stop
         style="stop-color:#729fcf;stop-opacity:1;"
         offset="1"
         id="stop3888" />
    </linearGradient>
  </defs>
  <sodipodi:namedview
     id="base"
     pagecolor="#ffffff"
     bordercolor="#666666"
     borderopacity="1.0"
     inkscape:pageopacity="0.0"
     inkscape:pageshadow="2"
     inkscape:zoom="45.25"
     inkscape:cx="7.9779006"
     inkscape:cy="8"
     inkscape:current-layer="layer1"
     showgrid="true"
     inkscape:grid-bbox="true"
     inkscape:document-units="px"
     inkscape:snap-to-guides="true"
     inkscape:snap-grids="true"
     inkscape:snap-center="true"
     inkscape:snap-page="false"
     inkscape:window-width="1280"
     inkscape:window-height="965"
     inkscape:window-x="0"
     inkscape:window-y="27"
     inkscape:window-maximized="1"
     inkscape:snap-bbox="true"
     inkscape:bbox-paths="true"
     inkscape:snap-bbox-edge-midpoints="true"
     inkscape:bbox-nodes="true"
     inkscape:snap-bbox-midpoints="true"
     inkscape:snap-object-midpoints="false">
    <inkscape:grid
       type="xygrid"
       id="grid2993"
       empspacing="4"
       visible="true"
       enabled="true"
       snapvisiblegridlinesonly="true" />
  </sodipodi:namedview>
  <metadata
     id="metadata2990">
    <rdf:RDF>
      <cc:Work
         rdf:about="">
        <dc:format>image/svg+xml</dc:format>
        <dc:type
           rdf:resource="http://purl.org/dc/dcmitype/StillImage" />
        <dc:title></dc:title>
      </cc:Work>
    </rdf:RDF>
  </metadata>
  <g
     id="layer1"
     inkscape:label="Layer 1"
     inkscape:groupmode="layer"
     transform="translate(0,-32)">
    <path
       style="fill:#3465a4;stroke:none"
       d="M 3 2 L 3 3 L 6 3 L 6 2 L 3 2 z M 3 3 L 2 3 L 2 6 L 3 6 L 3 3 z M 7 2 L 7 3 L 10 3 L 10 2 L 7 2 z M 11 2 L 11 3 L 14 3 L 15 3 L 14 2 L 11 2 z M 2 7 L 2 10 L 3 10 L 3 7 L 2 7 z M 2 11 L 2 14 L 3 15 L 3 14 L 3 11 L 2 11 z "
       transform="translate(0,32)"
       id="path3761" />
    <path
       style="fill:#cc0000;fill-opacity:1;stroke:none"
       d="M 2.5 1 C 1.6715729 1 1 1.6715729 1 2.5 C 1 3.3284271 1.6715729 4 2.5 4 C 3.3284271 4 4 3.3284271 4 2.5 C 4 1.6715729 3.3284271 1 2.5 1 z M 2.5 2 C 2.7761424 2 3 2.2238576 3 2.5 C 3 2.7761424 2.7761424 3 2.5 3 C 2.2238576 3 2 2.7761424 2 2.5 C 2 2.2238576 2.2238576 2 2.5 2 z "
       transform="translate(0,32)"
       id="path3838" />
  </g>
</svg>
